<?xml version="1.0" standalone="no"?>
<!DOCTYPE svg PUBLIC "-//W3C//DTD SVG 20010904//EN"
 "http://www.w3.org/TR/2001/REC-SVG-20010904/DTD/svg10.dtd">
<svg version="1.0" xmlns="http://www.w3.org/2000/svg"
 width="300.000000pt" height="252.000000pt" viewBox="0 0 300.000000 252.000000"
 preserveAspectRatio="xMidYMid meet">

<g transform="translate(0.000000,252.000000) scale(0.100000,-0.100000)"
fill="#000000" stroke="none">
<path d="M1528 2354 c-14 -13 -8 -37 13 -61 20 -20 28 -22 80 -16 82 8 204
-14 239 -44 27 -23 80 -32 80 -14 0 5 3 16 6 25 8 21 -54 50 -168 81 -98 26
-238 43 -250 29z"/>
<path d="M1290 2343 c-51 -8 -226 -66 -272 -89 -47 -24 -55 -37 -40 -61 12
-19 80 -20 94 -1 22 28 168 79 225 80 57 1 93 23 93 58 0 17 -6 20 -37 19 -21
-1 -49 -4 -63 -6z"/>
<path d="M1536 2257 c-15 -11 -17 -21 -12 -50 4 -20 2 -66 -5 -102 -11 -66
-12 -67 -56 -86 -54 -23 -57 -23 -50 -4 4 8 2 17 -4 20 -5 4 -7 10 -5 14 3 4
-6 43 -19 86 -19 60 -22 82 -13 92 8 10 8 17 1 24 -8 8 -13 7 -19 -3 -12 -18
-15 -48 -6 -48 6 0 10 -18 15 -72 1 -10 5 -18 10 -18 5 0 7 -7 4 -15 -4 -8 -2
-17 4 -20 5 -4 6 -11 3 -17 -4 -6 0 -14 7 -19 12 -8 12 -11 -1 -19 -12 -7 -13
-13 -3 -28 10 -18 3 -22 -103 -57 -63 -21 -118 -35 -121 -31 -3 3 0 7 8 9 112
31 191 68 181 84 -5 8 -27 5 -79 -12 -108 -34 -110 -35 -94 -44 8 -5 1 -8 -18
-7 -34 1 -37 6 -19 24 9 9 8 12 -5 12 -20 0 -22 11 -4 29 10 11 7 12 -13 6
l-25 -8 20 23 c18 21 18 23 2 17 -15 -6 -17 -3 -12 13 4 12 2 20 -5 20 -7 0
-10 7 -6 15 3 8 1 15 -5 15 -6 0 -9 7 -5 15 3 8 1 15 -5 15 -6 0 -9 6 -6 14 4
9 -2 14 -20 14 -32 0 -41 -25 -15 -43 12 -9 26 -40 37 -82 9 -38 20 -75 24
-83 11 -21 2 -78 -14 -84 -7 -2 -18 6 -25 19 -7 13 -18 21 -24 19 -13 -5 -86
58 -86 75 0 6 -7 11 -16 11 -8 0 -12 5 -9 10 3 6 -1 10 -10 10 -9 0 -13 5 -10
10 3 6 -1 10 -9 10 -9 0 -16 7 -16 15 0 8 -8 15 -17 15 -13 0 -14 3 -5 12 17
17 15 43 -4 59 -13 11 -21 10 -51 -6 -42 -23 -157 -145 -220 -233 l-46 -64 21
-21 22 -21 28 27 c26 25 30 26 42 11 13 -15 15 -14 27 2 15 20 8 35 -12 27
-31 -11 -14 25 31 68 25 24 62 61 82 82 38 40 52 46 52 22 0 -8 6 -15 13 -15
7 0 19 -9 27 -20 8 -11 20 -20 27 -20 7 0 13 -7 13 -15 0 -9 6 -12 15 -9 11 5
13 2 9 -10 -4 -10 -1 -16 8 -16 7 0 20 -9 28 -20 8 -11 20 -20 26 -20 7 0 9
-10 6 -25 -3 -19 0 -25 13 -25 11 0 15 -5 12 -14 -4 -10 -1 -13 9 -9 7 3 14 0
14 -5 0 -15 -157 -178 -165 -171 -3 4 24 39 60 78 36 39 65 74 65 77 0 13 -41
-26 -95 -89 -32 -37 -60 -65 -63 -63 -2 3 23 36 57 73 58 65 74 93 50 93 -5 0
-7 5 -3 12 19 30 -17 -8 -71 -76 -33 -41 -63 -75 -68 -76 -15 0 25 61 73 116
28 30 50 58 50 62 -1 7 -23 -16 -102 -108 -52 -60 -63 -56 -23 6 l26 39 -36
-38 c-20 -21 -39 -37 -41 -35 -5 5 41 75 84 127 19 23 30 41 25 41 -4 0 -18
-15 -30 -33 -33 -47 -103 -122 -103 -110 0 12 53 88 88 125 14 15 23 30 20 33
-3 3 -25 -20 -49 -51 -67 -87 -68 -88 -76 -81 -3 4 8 28 26 55 l33 47 -41 -44
c-51 -54 -62 -49 -20 10 l32 44 -40 -38 c-22 -20 -42 -34 -46 -31 -4 4 -7 1
-7 -8 0 -8 38 -48 84 -89 47 -41 85 -77 85 -81 2 -15 -47 -13 -104 4 -33 10
-76 21 -95 24 -49 8 -70 22 -70 44 0 27 -35 35 -65 13 -53 -38 -106 -198 -121
-365 -6 -72 -5 -78 13 -78 10 0 29 7 41 16 18 12 26 13 37 4 9 -8 20 -8 31 -2
21 12 192 -23 213 -43 12 -12 10 -15 -15 -20 -16 -3 -47 -11 -68 -16 -22 -6
-48 -12 -58 -14 -11 -2 -28 -7 -39 -10 -12 -4 -21 -1 -25 9 -4 10 -18 16 -39
16 -29 0 -37 -6 -60 -46 -26 -45 -27 -49 -15 -108 21 -109 109 -337 129 -336
14 1 39 27 45 48 4 12 14 22 22 22 8 0 25 7 38 16 14 8 72 28 130 43 96 25
106 26 106 10 0 -9 -6 -19 -13 -22 -6 -2 -38 -26 -70 -51 -36 -30 -64 -45 -75
-42 -27 8 -58 -26 -82 -91 l-22 -62 20 -29 c48 -67 259 -242 292 -242 5 0 11
14 15 31 4 17 15 39 25 49 11 11 26 33 35 50 9 17 44 60 78 96 34 36 64 70 65
75 2 5 10 9 18 9 35 0 0 -101 -71 -207 -17 -24 -25 -50 -25 -78 0 -82 8 -100
56 -123 70 -34 191 -62 271 -62 l73 0 0 59 c0 33 5 72 11 88 6 15 13 63 14
107 4 95 19 136 50 136 17 0 24 -9 35 -47 7 -27 13 -70 15 -98 1 -27 8 -92 15
-144 l13 -93 71 5 c77 5 222 53 278 91 45 31 41 55 -33 205 -56 113 -61 128
-53 160 13 49 35 43 107 -27 39 -38 63 -73 75 -104 9 -27 22 -48 29 -48 7 0
22 -18 33 -40 11 -22 23 -40 26 -40 14 0 103 73 155 127 63 65 119 139 119
159 0 7 -12 26 -27 42 -16 16 -40 44 -54 61 -16 19 -36 31 -51 31 -45 0 -148
101 -148 145 0 19 42 20 71 3 17 -11 22 -10 35 6 8 11 14 31 14 45 0 21 -2 23
-11 11 -8 -12 -9 -10 -5 10 14 68 18 133 8 126 -5 -3 -13 -30 -17 -59 -6 -52
-24 -121 -30 -115 -4 4 10 101 24 170 12 56 13 57 42 51 20 -4 29 -1 29 7 0
10 3 10 15 0 12 -10 15 -10 15 1 0 10 3 10 11 2 6 -6 18 -9 25 -6 8 3 14 1 14
-4 0 -5 12 -8 28 -8 15 1 33 -3 40 -8 6 -5 12 -7 12 -3 0 3 11 1 24 -4 20 -7
26 -6 29 8 3 12 8 8 19 -17 13 -29 13 -43 2 -105 -20 -107 -22 -111 -51 -145
-26 -29 -58 -46 -35 -18 16 19 39 95 46 152 9 66 -7 38 -24 -43 -7 -34 -17
-65 -23 -69 -6 -4 -8 3 -3 18 3 13 9 47 11 74 5 49 5 49 -13 -17 -10 -37 -22
-71 -27 -75 -4 -5 -5 3 -1 17 4 14 9 50 11 80 l5 55 -15 -63 c-14 -61 -33
-107 -40 -100 -2 2 2 22 10 43 8 22 14 60 14 85 -1 52 -3 47 -19 -31 -6 -31
-17 -65 -25 -75 -12 -16 -12 -11 0 30 8 27 14 68 14 90 l-1 41 -10 -45 c-15
-68 -38 -130 -50 -130 -7 0 -7 4 0 13 13 16 32 109 31 150 -1 31 -1 31 -10 -8
-10 -41 -36 -130 -46 -152 -3 -9 4 -13 20 -13 25 0 148 -59 178 -86 8 -8 21
-14 27 -14 23 0 84 203 97 321 l7 67 -38 36 c-49 45 -98 63 -120 45 -11 -9
-46 -13 -99 -14 -88 0 -125 16 -123 53 1 10 -16 66 -37 127 -25 72 -34 110
-26 113 6 2 11 10 11 18 0 17 12 18 28 2 9 -9 12 -9 13 3 1 7 1 18 0 23 -1 5
5 6 14 3 10 -4 15 -1 15 10 0 14 3 14 22 -3 19 -17 21 -17 15 -1 -7 20 3 22
22 5 11 -11 12 -8 6 12 l-6 25 20 -25 21 -25 0 23 c0 13 4 21 9 18 14 -9 41 4
41 20 0 18 14 18 30 -1 7 -8 21 -15 31 -15 23 0 33 -23 60 -138 14 -59 17 -87
10 -100 -9 -14 -11 -12 -11 13 -1 17 -7 44 -16 60 -12 26 -14 27 -9 5 2 -14 5
-42 5 -62 0 -23 5 -38 12 -38 6 0 21 -9 33 -20 14 -13 28 -17 44 -13 22 6 23
9 17 65 -9 73 -46 205 -80 282 -22 49 -32 60 -72 77 -60 27 -94 20 -94 -21 0
-24 -5 -31 -27 -36 -16 -3 -46 -15 -69 -25 -22 -10 -46 -19 -53 -19 -7 0 -10
-4 -7 -9 4 -5 -3 -7 -14 -4 -13 3 -20 0 -20 -9 0 -7 -9 -14 -20 -14 -11 0 -20
3 -20 7 0 4 -3 14 -6 23 -5 12 0 16 21 16 14 0 24 4 21 8 -6 11 -172 112 -183
112 -14 0 -83 61 -83 73 0 8 4 7 12 -1 20 -20 41 -15 35 8 -3 13 0 20 9 20 8
0 11 6 7 17 -5 13 -2 15 11 10 14 -5 17 -3 12 8 -3 9 0 15 10 15 11 0 14 6 10
16 -4 12 -1 14 14 9 15 -5 18 -3 14 9 -5 12 0 16 21 16 24 0 27 3 23 25 -4 17
-1 25 8 25 8 0 11 6 7 17 -5 13 -2 15 11 10 10 -4 25 -7 35 -7 22 0 131 -84
148 -113 7 -12 17 -34 23 -50 5 -15 21 -32 35 -39 21 -9 28 -8 45 7 26 23 18
36 -77 136 -81 85 -178 159 -230 177 -29 10 -34 9 -44 -9 -6 -12 -8 -32 -5
-45 5 -19 0 -26 -24 -39 -17 -9 -33 -27 -37 -43 -3 -15 -19 -39 -35 -54 -18
-16 -26 -32 -22 -42 10 -25 -5 -19 -37 15 -16 17 -29 40 -29 50 0 11 -7 19
-17 19 -13 0 -14 -3 -5 -12 17 -17 15 -31 -4 -24 -14 5 -15 4 -4 -9 7 -9 11
-17 9 -19 -2 -2 -53 7 -113 21 -59 13 -111 22 -113 19 -22 -21 62 -54 155 -61
22 -1 56 -25 37 -25 -16 0 -230 41 -233 45 -2 2 1 12 7 23 8 16 7 21 -6 27
-15 5 -15 7 -3 16 13 8 13 10 0 18 -12 9 -12 11 4 17 14 5 15 9 4 16 -10 7
-10 11 -1 14 7 3 9 12 6 20 -3 8 0 14 7 14 10 0 10 3 0 15 -10 12 -10 15 0 15
7 0 10 6 7 14 -3 8 -3 17 1 20 13 13 12 46 -2 46 -8 0 -16 5 -18 10 -2 7 -10
6 -22 -3z m308 -323 c9 -35 1 -41 -24 -19 -25 23 -26 45 -1 45 12 0 21 -9 25
-26z m-58 -35 c19 -22 19 -22 -3 -8 -13 8 -23 17 -23 21 0 12 6 9 26 -13z
m-649 -11 c-3 -8 -6 -5 -6 6 -1 11 2 17 5 13 3 -3 4 -12 1 -19z m718 -18 c3
-5 -1 -10 -10 -10 -9 0 -13 5 -10 10 3 6 8 10 10 10 2 0 7 -4 10 -10z m-597
-42 c6 -23 9 -44 6 -47 -7 -8 -15 6 -18 33 -1 14 -6 29 -9 33 -10 9 -9 23 2
23 5 0 13 -19 19 -42z m442 -8 c0 -11 -4 -20 -9 -20 -5 0 -7 9 -4 20 3 11 7
20 9 20 2 0 4 -9 4 -20z m35 -115 c91 -44 184 -139 215 -221 20 -55 26 -150
14 -213 l-6 -31 -88 0 -87 0 -16 -37 c-9 -21 -24 -50 -33 -65 -16 -24 -16 -31
-4 -69 8 -24 25 -58 37 -76 13 -19 23 -40 23 -47 0 -23 -102 -96 -158 -112
-80 -24 -267 -15 -345 15 -86 34 -93 44 -63 96 36 66 30 135 -19 209 -20 31
-44 56 -53 56 -8 0 -45 -5 -80 -11 -89 -16 -95 -7 -90 122 4 84 9 102 38 157
41 78 124 156 217 205 39 20 75 37 80 37 5 0 25 -33 45 -74 l37 -74 83 5 c46
3 86 8 89 12 3 3 18 39 33 79 18 47 33 72 43 72 9 0 49 -16 88 -35z m359 -14
c-2 -3 -12 3 -22 13 -16 17 -16 18 5 5 12 -7 20 -15 17 -18z m-98 -26 c-8 -9
-20 -24 -25 -33 -5 -9 -13 -13 -17 -9 -4 4 5 21 21 37 16 16 31 28 33 25 2 -2
-3 -11 -12 -20z m-1005 -44 c18 -17 28 -34 24 -41 -5 -8 -18 -2 -41 21 -18 18
-31 36 -28 41 8 12 10 11 45 -21z m-419 -50 c13 -5 29 -6 36 -4 6 3 12 1 12
-4 0 -5 8 -9 18 -10 9 0 34 -3 55 -5 22 -3 40 -1 45 6 4 6 9 -2 12 -19 4 -20
11 -30 23 -29 18 2 21 -13 11 -41 -5 -12 -9 -13 -14 -5 -6 9 -13 9 -26 2 -13
-7 -25 -38 -41 -104 l-21 -93 -1 55 c0 30 3 72 8 92 5 21 5 36 1 33 -5 -3 -14
-38 -20 -78 -6 -39 -13 -79 -16 -87 -6 -24 7 143 13 170 4 17 2 22 -5 15 -6
-5 -17 -50 -26 -100 l-15 -90 4 100 c5 111 2 113 -19 10 l-15 -70 6 85 c3 47
3 82 -1 79 -4 -4 -13 -40 -21 -80 l-14 -74 5 85 c3 47 3 82 -1 79 -3 -4 -12
-40 -20 -80 l-14 -74 4 80 c6 92 -9 87 -20 -7 -4 -32 -11 -58 -16 -58 -4 0 -7
6 -4 13 10 33 15 117 6 117 -11 0 -35 -134 -28 -161 3 -10 1 -19 -3 -19 -8 0
-25 73 -23 95 1 6 4 41 8 78 6 60 11 74 43 109 34 38 36 39 44 19 4 -12 18
-25 30 -30z m302 -1 c-10 -16 -20 -27 -22 -25 -5 5 26 55 34 55 3 0 -3 -13
-12 -30z m1246 20 c0 -5 -2 -10 -4 -10 -3 0 -8 5 -11 10 -3 6 -1 10 4 10 6 0
11 -4 11 -10z m-1360 -240 l-11 -25 6 25 c2 14 5 36 6 50 l2 25 4 -25 c2 -14
-1 -37 -7 -50z m1404 21 c-17 -16 -76 -32 -72 -19 2 6 19 16 38 22 37 13 50
11 34 -3z m-1654 -51 c0 -5 -4 -10 -10 -10 -5 0 -10 5 -10 10 0 6 5 10 10 10
6 0 10 -4 10 -10z m368 4 c12 -4 22 -12 22 -19 0 -11 -8 -11 -37 -3 -48 13
-66 28 -32 28 13 0 34 -3 47 -6z m-338 -14 c0 -5 -5 -10 -11 -10 -5 0 -7 5 -4
10 3 6 8 10 11 10 2 0 4 -4 4 -10z m207 -22 c-3 -7 -5 -2 -5 12 0 14 2 19 5
13 2 -7 2 -19 0 -25z m-177 12 c0 -5 -2 -10 -4 -10 -3 0 -8 5 -11 10 -3 6 -1
10 4 10 6 0 11 -4 11 -10z m27 -12 c-3 -8 -6 -5 -6 6 -1 11 2 17 5 13 3 -3 4
-12 1 -19z m87 -179 c5 7 13 7 27 -2 16 -10 21 -9 29 3 5 8 11 12 13 10 8 -8
64 -163 72 -195 11 -51 -11 -15 -28 45 -15 52 -46 108 -47 84 0 -6 9 -37 20
-69 23 -68 23 -68 9 -59 -11 6 -8 -10 9 -55 3 -9 1 -12 -6 -8 -6 4 -22 42 -36
85 -15 42 -31 84 -36 92 -20 30 -11 -17 19 -102 17 -45 28 -84 26 -86 -6 -6
-31 48 -54 113 -12 32 -25 63 -31 69 -13 13 28 -134 46 -161 18 -28 18 -39 0
-24 -7 6 -28 50 -46 97 -17 47 -34 83 -37 81 -7 -8 35 -140 51 -162 18 -23 21
-39 6 -30 -11 7 -37 62 -60 125 -7 19 -17 39 -21 44 -14 16 12 -77 35 -126 13
-27 18 -47 12 -45 -6 2 -21 30 -34 63 -36 94 -43 105 -36 59 3 -22 16 -62 29
-88 12 -26 17 -46 11 -44 -6 2 -24 39 -41 82 -16 44 -31 71 -33 62 -2 -10 8
-47 22 -83 14 -35 26 -67 26 -71 0 -19 -30 39 -50 97 -26 72 -40 95 -40 64 0
-24 46 -144 60 -158 20 -20 10 -29 -11 -10 -28 25 -99 171 -99 203 0 42 11 71
24 64 17 -11 46 -14 46 -5 0 5 14 8 30 7 17 -1 30 2 30 8 0 5 7 7 15 3 8 -3
15 -1 15 5 0 6 6 9 14 6 8 -3 17 2 21 11 5 13 8 14 14 3 6 -9 11 -10 15 -2z
m501 1 c3 -5 2 -10 -4 -10 -5 0 -13 5 -16 10 -3 6 -2 10 4 10 5 0 13 -4 16
-10z m985 -22 c0 -6 -8 -4 -17 3 -15 13 -16 12 -11 -8 4 -13 2 -23 -2 -23 -16
0 -22 21 -10 35 12 15 40 10 40 -7z m-1256 -67 c-3 -9 -7 -21 -7 -28 0 -14
-47 -37 -47 -23 0 6 7 10 16 10 14 0 15 8 9 47 l-7 48 21 -19 c13 -12 19 -26
15 -35z m-47 23 c-3 -3 -12 -4 -19 -1 -8 3 -5 6 6 6 11 1 17 -2 13 -5z m1257
-4 c14 -5 26 -14 26 -20 0 -6 -5 -8 -11 -4 -7 4 -21 8 -33 9 -34 4 -36 5 -36
15 0 13 21 13 54 0z m-1184 -40 c0 -5 -5 -10 -11 -10 -5 0 -7 5 -4 10 3 6 8
10 11 10 2 0 4 -4 4 -10z m81 -127 c13 -16 12 -17 -3 -4 -10 7 -18 15 -18 17
0 8 8 3 21 -13z m1099 -65 c0 -9 3 -8 10 2 7 12 12 11 28 -8 11 -12 22 -22 26
-22 4 0 17 -10 30 -22 41 -40 64 -57 70 -51 3 4 6 -4 6 -16 0 -12 4 -20 9 -16
5 3 12 1 16 -5 4 -6 11 -8 16 -5 16 10 21 -22 8 -47 -36 -68 -143 -168 -180
-168 -8 0 0 8 16 19 34 20 115 108 115 124 0 6 -13 -2 -30 -18 -16 -16 -33
-26 -36 -22 -9 9 -34 -12 -34 -27 0 -6 7 -2 15 8 8 11 15 15 15 9 0 -14 -27
-35 -85 -68 l-50 -28 28 29 c32 36 36 55 5 28 -12 -10 1 15 29 56 61 93 66
100 59 100 -3 0 -24 -28 -45 -62 -33 -52 -81 -102 -81 -84 0 2 25 41 56 85 30
45 51 81 46 81 -4 0 -19 -18 -31 -41 -28 -50 -79 -109 -94 -109 -6 0 -2 10 9
23 11 12 31 40 45 62 14 22 34 52 43 68 10 15 16 27 12 27 -3 0 -28 -33 -55
-74 -27 -40 -57 -76 -66 -80 -15 -5 0 21 77 132 16 23 25 42 20 42 -5 0 -25
-26 -45 -57 -32 -52 -87 -116 -87 -101 0 4 25 43 55 88 31 46 54 85 51 87 -2
3 -21 -22 -41 -54 -42 -66 -74 -103 -88 -103 -6 0 -2 9 7 19 11 12 13 20 6 23
-6 2 3 17 20 33 17 17 35 39 41 50 6 11 -11 -1 -38 -27 -51 -50 -74 -63 -50
-27 29 41 132 159 140 159 4 0 7 -6 7 -12z m-183 -52 c15 -14 22 -29 18 -36
-5 -8 -16 -3 -36 16 -16 15 -29 31 -29 36 0 15 21 8 47 -16z m-868 -20 c0 -7
-2 -6 -6 2 -2 6 -11 12 -19 12 -9 0 -12 5 -9 10 8 13 35 -6 34 -24z m-97 -23
c64 -49 110 -95 102 -102 -2 -3 -19 6 -37 19 l-32 23 23 -25 c12 -13 19 -28
15 -33 -5 -4 -2 -5 6 0 10 6 12 4 6 -5 -4 -7 -2 -16 6 -21 12 -7 12 -9 0 -9
-8 0 -46 24 -85 53 -89 66 -97 72 -90 55 2 -7 38 -38 79 -67 72 -53 100 -85
53 -60 -21 11 -95 65 -108 79 -18 18 -40 31 -40 22 0 -5 33 -34 73 -63 39 -29
74 -54 76 -56 2 -2 2 -6 -2 -9 -3 -3 -36 16 -72 43 -37 26 -76 55 -88 63 -50
34 6 -19 73 -71 68 -52 85 -73 38 -48 -12 6 -43 28 -68 47 -72 57 -78 61 -60
38 8 -11 44 -41 79 -68 35 -26 57 -48 49 -48 -8 0 -48 25 -88 55 -72 54 -80
59 -80 51 0 -5 119 -99 145 -114 26 -15 1 -16 -28 -1 -12 7 -40 26 -62 44 -49
38 -70 52 -62 38 4 -6 32 -30 64 -54 79 -59 79 -59 60 -59 -9 0 -40 19 -69 43
-29 24 -60 47 -68 52 -13 8 -13 7 -1 -8 16 -20 125 -103 143 -110 7 -2 10 -8
6 -12 -4 -4 -27 4 -51 18 -25 15 -48 23 -52 19 -5 -4 -5 -2 -1 5 7 13 -31 39
-51 35 -13 -3 -83 76 -83 94 0 7 -3 21 -6 31 -6 15 -4 16 7 6 7 -7 16 -13 19
-13 13 0 50 37 50 49 0 7 5 9 10 6 6 -3 10 1 10 10 0 9 5 13 10 10 6 -3 10 -1
10 5 0 17 28 42 40 35 6 -3 10 4 10 16 0 17 3 19 14 10 11 -10 16 -8 21 8 3
12 10 21 16 21 5 0 37 -21 71 -47z m143 -3 c-38 -39 -53 -27 -18 14 16 20 32
30 37 25 6 -5 -1 -21 -19 -39z m702 -145 c-27 -19 -20 -27 8 -9 27 18 31 13
14 -17 -9 -17 -7 -21 10 -26 12 -3 17 -11 14 -19 -3 -8 0 -14 6 -14 6 0 8 -7
5 -15 -4 -8 -1 -15 5 -15 6 0 8 -7 5 -15 -4 -8 -1 -15 5 -15 6 0 8 -7 5 -15
-4 -8 -1 -15 5 -15 6 0 8 -6 5 -14 -3 -7 3 -21 12 -31 17 -16 16 -18 -7 -36
-49 -38 -198 -83 -240 -72 -22 6 -22 8 -9 34 8 14 7 19 -1 19 -6 0 -9 6 -6 14
3 8 -2 17 -11 21 -14 5 -14 7 -2 15 12 8 12 10 1 10 -7 0 -11 6 -7 15 3 8 1
15 -5 15 -6 0 -9 7 -5 15 3 9 0 15 -10 15 -29 0 -4 17 34 24 41 6 156 55 149
62 -2 3 -41 -9 -86 -26 -45 -16 -94 -30 -109 -29 -26 0 -26 1 -5 11 17 8 20
15 13 33 -8 21 -5 25 38 39 26 8 74 26 107 39 60 24 93 25 62 2z m-465 -31
c59 -10 104 -22 102 -26 -3 -5 -13 -6 -22 -4 -10 3 -55 10 -101 15 -57 6 -88
15 -100 26 -13 15 -13 17 -1 13 8 -3 63 -14 122 -24z m97 -50 c3 -2 -1 -10 -7
-16 -8 -8 -7 -15 6 -24 10 -8 12 -13 5 -14 -7 0 -10 -7 -7 -15 4 -8 2 -15 -2
-15 -5 0 -10 -16 -11 -35 -2 -19 2 -35 7 -35 18 0 10 -19 -11 -25 -11 -4 -18
-13 -15 -20 2 -7 -8 -25 -24 -40 -25 -24 -31 -26 -66 -17 -22 6 -66 13 -99 17
-76 9 -101 21 -84 41 6 8 8 14 3 14 -4 0 -3 5 4 12 9 9 7 17 -11 36 l-22 24
22 -6 c19 -6 25 -2 33 19 6 15 8 31 4 36 -3 5 0 9 6 9 7 0 10 6 7 13 -2 6 3
18 12 25 15 11 14 13 -1 23 -10 5 -18 13 -18 17 0 8 261 -16 269 -24z"/>
<path d="M501 1504 c0 -11 3 -14 6 -6 3 7 2 16 -1 19 -3 4 -6 -2 -5 -13z"/>
<path d="M2206 614 c-5 -14 -4 -15 9 -4 17 14 19 20 6 20 -5 0 -12 -7 -15 -16z"/>
<path d="M2225 580 c-3 -5 1 -10 9 -10 9 0 16 5 16 10 0 6 -4 10 -9 10 -6 0
-13 -4 -16 -10z"/>
<path d="M934 701 c4 -5 21 -20 39 -32 l32 -23 -20 23 c-22 25 -62 51 -51 32z"/>
<path d="M747 505 c10 -13 22 -25 27 -25 5 0 -1 11 -14 25 -30 32 -36 32 -13
0z"/>
<path d="M1683 517 c-17 -7 -35 -15 -39 -19 -13 -14 20 -7 61 12 44 20 28 25
-22 7z"/>
<path d="M1695 425 c-23 -11 -25 -14 -10 -14 11 0 29 6 39 14 24 18 11 18 -29
0z"/>
<path d="M1705 395 c-33 -11 -36 -13 -14 -14 14 -1 34 6 45 14 23 17 21 17
-31 0z"/>
<path d="M1705 360 c-13 -6 -15 -9 -5 -9 8 0 22 4 30 9 18 12 2 12 -25 0z"/>
<path d="M1705 330 c-19 -8 -19 -9 2 -9 12 -1 25 4 28 9 7 12 -2 12 -30 0z"/>
<path d="M1715 300 c-3 -6 1 -7 9 -4 18 7 21 14 7 14 -6 0 -13 -4 -16 -10z"/>
<path d="M1750 280 c-35 -13 -43 -18 -24 -15 32 4 108 33 89 34 -5 0 -35 -9
-65 -19z"/>
<path d="M1234 469 c-3 -5 6 -9 20 -9 31 0 34 6 6 13 -11 3 -23 1 -26 -4z"/>
<path d="M1358 457 c24 -7 36 -7 44 1 9 9 1 12 -32 11 l-45 -1 33 -11z"/>
<path d="M1353 423 c9 -2 25 -2 35 0 9 3 1 5 -18 5 -19 0 -27 -2 -17 -5z"/>
<path d="M1353 393 c9 -2 23 -2 30 0 6 3 -1 5 -18 5 -16 0 -22 -2 -12 -5z"/>
<path d="M1343 363 c9 -2 23 -2 30 0 6 3 -1 5 -18 5 -16 0 -22 -2 -12 -5z"/>
<path d="M1200 310 c0 -13 11 -13 30 0 12 8 11 10 -7 10 -13 0 -23 -4 -23 -10z"/>
<path d="M1309 295 c43 -19 61 -19 61 0 0 11 -12 15 -47 15 l-48 -1 34 -14z"/>
<path d="M1285 260 c11 -5 34 -8 50 -8 l30 0 -30 8 c-16 4 -39 8 -50 8 l-20 1
20 -9z"/>
<path d="M1745 2215 c22 -8 51 -14 65 -14 20 1 17 4 -15 14 -22 8 -51 14 -65
14 -19 0 -16 -3 15 -14z"/>
<path d="M1185 2206 c-23 -7 -50 -18 -60 -24 -40 -23 17 -13 70 12 55 27 51
31 -10 12z"/>
<path d="M1847 2189 c12 -15 12 -43 1 -55 -4 -3 -4 -12 -1 -20 3 -8 0 -14 -6
-14 -6 0 -8 -7 -5 -15 4 -8 1 -15 -6 -15 -6 0 -8 -4 -5 -10 13 -21 22 -8 35
45 9 37 19 57 32 61 10 3 16 10 12 15 -3 5 -9 7 -14 4 -5 -3 -20 0 -32 6 -20
11 -21 10 -11 -2z"/>
<path d="M1755 2180 c11 -5 29 -9 40 -9 17 -1 17 1 5 9 -8 5 -26 9 -40 9 -23
0 -23 -1 -5 -9z"/>
<path d="M1168 2164 c-27 -8 -48 -17 -48 -21 0 -10 69 5 92 21 27 19 18 19
-44 0z"/>
<path d="M1735 2150 c11 -5 31 -9 45 -9 23 0 23 1 5 9 -11 5 -31 9 -45 9 -23
0 -23 -1 -5 -9z"/>
<path d="M1175 2130 l-40 -20 33 5 c18 3 43 12 55 20 32 22 0 19 -48 -5z"/>
<path d="M1678 2133 c7 -3 16 -2 19 1 4 3 -2 6 -13 5 -11 0 -14 -3 -6 -6z"/>
<path d="M1212 2111 c-58 -20 -75 -31 -48 -31 18 0 106 37 106 45 0 3 -1 5 -2
4 -2 0 -27 -9 -56 -18z"/>
<path d="M1725 2120 c11 -5 31 -9 45 -9 23 0 23 1 5 9 -11 5 -31 9 -45 9 -23
0 -23 -1 -5 -9z"/>
<path d="M1695 2095 c22 -7 51 -13 65 -13 l25 0 -25 7 c-14 4 -43 11 -65 14
l-40 6 40 -14z"/>
<path d="M1218 2078 c-32 -11 -58 -24 -58 -30 0 -5 10 -6 23 -2 30 9 97 43 97
49 0 3 -1 5 -2 4 -2 0 -29 -10 -60 -21z"/>
<path d="M1710 2056 c40 -17 79 -21 65 -7 -6 5 -30 12 -55 15 l-45 6 35 -14z"/>
<path d="M1218 2042 c-53 -19 -70 -32 -42 -32 21 0 104 36 104 45 0 7 -9 5
-62 -13z"/>
<path d="M1685 2025 c22 -8 51 -13 65 -13 19 0 16 3 -15 13 -22 8 -51 13 -65
13 -19 0 -16 -3 15 -13z"/>
<path d="M1225 2007 c-44 -16 -54 -22 -38 -25 13 -2 47 8 75 21 65 31 44 33
-37 4z"/>
<path d="M2136 2012 c5 -5 33 -28 62 -51 49 -41 88 -92 76 -103 -2 -3 -34 25
-70 61 -36 36 -63 60 -59 54 8 -16 -7 -17 -23 -1 -9 9 -12 9 -12 0 0 -6 26
-29 58 -50 63 -43 99 -79 89 -88 -3 -4 -28 11 -54 33 -52 42 -88 66 -115 76
-33 12 -18 -1 50 -44 70 -44 91 -64 92 -88 0 -8 -10 -4 -26 12 -32 33 -123 91
-130 84 -3 -2 22 -21 55 -42 59 -35 90 -69 76 -83 -4 -4 -11 0 -15 9 -12 21
-139 104 -146 96 -4 -3 15 -19 42 -34 27 -15 64 -42 82 -60 l33 -32 31 34 c17
20 41 38 54 41 13 3 24 13 24 21 0 8 -5 11 -10 8 -6 -3 -13 2 -17 12 -17 47
-116 143 -147 143 -6 0 -6 -3 0 -8z"/>
<path d="M770 1955 c-8 -9 -8 -15 -2 -15 12 0 26 19 19 26 -2 2 -10 -2 -17
-11z"/>
<path d="M774 1903 c-23 -31 -24 -34 -5 -18 22 19 46 55 38 55 -3 0 -17 -17
-33 -37z"/>
<path d="M801 1888 c-14 -23 -14 -23 8 -4 22 20 25 26 13 26 -4 0 -13 -10 -21
-22z"/>
<path d="M2025 1861 c4 -7 30 -27 59 -46 57 -37 93 -72 82 -82 -3 -4 -12 -1
-18 5 -7 7 -17 12 -22 12 -6 -1 0 -10 13 -20 22 -19 24 -19 37 -3 11 16 7 23
-33 60 -48 43 -132 95 -118 74z"/>
<path d="M1970 1849 c0 -14 36 -42 92 -73 l53 -29 -35 37 c-35 38 -110 82
-110 65z"/>
<path d="M869 1818 l-22 -33 31 29 c34 32 37 36 23 36 -5 0 -20 -15 -32 -32z"/>
<path d="M2320 1563 c0 -6 11 -44 25 -85 14 -40 25 -81 25 -91 0 -14 5 -17 21
-12 15 5 20 3 17 -6 -3 -8 -15 -14 -29 -14 -19 0 -23 5 -21 21 2 12 -10 53
-25 90 -26 66 -28 68 -34 39 -5 -22 -7 -24 -8 -8 -1 23 -21 43 -21 21 0 -29
56 -188 66 -188 6 0 33 7 60 15 27 8 59 15 72 15 22 0 28 10 15 24 -4 4 -8 22
-9 39 -1 39 -37 101 -42 74 -2 -10 2 -25 9 -33 10 -12 10 -17 1 -23 -7 -4 -10
-21 -8 -39 2 -18 0 -35 -5 -38 -9 -5 -13 11 -9 31 5 26 -26 95 -61 135 -21 25
-39 40 -39 33z m20 -183 c0 -13 -1 -13 -10 0 -5 8 -10 22 -10 30 0 13 1 13 10
0 5 -8 10 -22 10 -30z m57 18 c-3 -8 -6 -5 -6 6 -1 11 2 17 5 13 3 -3 4 -12 1
-19z m63 -14 c0 -8 -5 -12 -10 -9 -6 4 -8 11 -5 16 9 14 15 11 15 -7z m-110
-34 c0 -5 -4 -10 -10 -10 -5 0 -10 5 -10 10 0 6 5 10 10 10 6 0 10 -4 10 -10z"/>
<path d="M2381 1565 c0 -5 6 -21 14 -35 8 -14 14 -20 14 -15 0 6 -6 21 -14 35
-8 14 -14 21 -14 15z"/>
<path d="M2213 1502 c3 -15 8 -36 12 -47 3 -11 -4 0 -15 24 -31 68 -35 41 -6
-44 14 -41 26 -84 26 -95 0 -16 6 -20 33 -18 17 2 35 10 38 18 7 18 -40 162
-51 155 -4 -3 -7 3 -6 11 0 9 -7 18 -18 20 -15 2 -17 -2 -13 -24z m56 -154 c1
-5 -3 -8 -8 -8 -5 0 -11 12 -14 28 -3 15 -8 36 -12 47 -3 11 3 2 14 -20 11
-22 20 -43 20 -47z"/>
<path d="M2291 1108 c-15 -89 -32 -162 -41 -178 -6 -11 -7 -20 -2 -20 20 0 59
147 49 186 -2 10 -5 16 -6 12z"/>
</g>
</svg>
